# xmcd
# 
# Track frame offsets:
#     150
#     36575
#     77842
#     123155
#     153885
#     187685
#     225975
# 
# Disc length: 3587
# 
# Revision: 2
# Processed by: cddbd v1.5.2PL0 Copyright (c) Steve Scherf et al.
# Submitted via: BonkEnc v1.0.8
# 
DISCID=450e0107
DTITLE=本田竹曠, Paul Jackson, 日野元彦 - Boogie-Boga-Boo
DYEAR=1995
DGENRE=Contemporary Jazz
TTITLE0=J.f.
TTITLE1=Wing It Shuffle
TTITLE2=Evening Glow
TTITLE3=Fa La Na Ku
TTITLE4=Dix
TTITLE5=Urizun
TTITLE6=Water Under The Bridge
EXTD=YEAR: 1995
EXTT0=
EXTT1=
EXTT2=
EXTT3=
EXTT4=
EXTT5=
EXTT6=
PLAYORDER=
